<svg width="887" height="140" viewBox="0 0 887 140" fill="none" xmlns="http://www.w3.org/2000/svg">
<rect width="887" height="140" rx="8" fill="#E2E7FF"/>
<path d="M667.991 0L879 0C883.418 0 887 3.58172 887 8V132C887 136.418 883.418 140 879 140H560L667.991 0Z" fill="#C3CCFB"/>
<path d="M58.2475 46.2612H63.2266C63.7902 46.2612 64.166 46.6395 64.166 47.2069V63.6608C64.166 64.2282 63.7902 64.6065 63.2266 64.6065H58.2475C57.6838 64.6065 57.308 64.2282 57.308 63.6608V47.2069C57.308 46.6395 57.6838 46.2612 58.2475 46.2612Z" fill="#D9CD9D"/>
<path d="M57.307 47.7725H64.165V52.5006H57.307V47.7725Z" fill="#D4C690"/>
<path d="M55.5208 44.7451H65.9487V47.7711H55.5208V44.7451Z" fill="#E1D7B1"/>
<path d="M55.427 48.719H65.8549C66.4186 48.719 66.7944 48.3408 66.7944 47.7734V44.7474C66.7944 44.18 66.4186 43.8018 65.8549 43.8018H55.427C54.8634 43.8018 54.4876 44.18 54.4876 44.7474V47.7734C54.4876 48.3408 54.9573 48.719 55.427 48.719ZM65.0094 46.8278H56.4604V45.693H65.0094V46.8278Z" fill="#E1D7B1"/>
<path d="M170.227 102.246H173.609C174.173 102.246 174.548 102.624 174.548 103.191V132.128C174.548 132.695 174.173 133.073 173.609 133.073H170.227C169.663 133.073 169.288 132.695 169.288 132.128V103.191C169.288 102.719 169.663 102.246 170.227 102.246Z" fill="#333846"/>
<path d="M148.245 89.0679L180.479 102.54C181.968 103.163 182.653 104.888 181.998 106.362C181.358 107.8 179.682 108.457 178.235 107.836L148.245 94.9609" fill="#EF3443"/>
<path d="M148.502 132.278H182.585V137.146H148.502V132.278Z" fill="#EEE9D4"/>
<path d="M40.7711 117.088C39.7378 115.859 37.577 116.048 36.3557 117.183C35.1345 118.223 34.4768 119.925 33.9132 121.438C32.41 119.831 29.7796 119.452 27.9007 120.493C26.0218 121.533 24.8945 123.991 25.3642 126.072C24.4247 125.41 23.2974 124.653 22.0761 124.842C20.9488 125.032 20.1033 125.883 19.6335 126.923C19.1638 127.963 19.0699 129.098 19.0699 130.138C16.5333 129.476 13.5271 128.814 11.6482 130.611C9.9572 132.124 9.9572 134.866 10.6148 137.041L45.0926 137.325L40.7711 117.088Z" fill="#296F3E"/>
<path d="M45.0936 138.363C45.3755 138.363 45.6573 138.269 45.8452 137.985C46.0331 137.796 46.127 137.512 46.0331 137.228L41.7116 116.992C41.7116 116.803 41.6177 116.708 41.5237 116.614C40.0206 114.911 37.3901 115.195 35.7931 116.519C34.6657 117.465 34.0081 118.789 33.5384 120.018C31.7534 118.883 29.3109 118.789 27.5259 119.829C25.8349 120.774 24.7076 122.571 24.4257 124.557C23.7681 124.179 22.9226 123.989 22.0771 124.084C20.7619 124.273 19.5406 125.219 18.9769 126.732C18.6012 127.488 18.5072 128.339 18.4133 129.19C15.8767 128.529 13.1523 128.339 11.1795 130.136C9.11271 132.027 9.11271 135.242 9.86427 137.607C9.95822 137.985 10.334 138.269 10.7098 138.269L45.0936 138.363ZM39.9267 117.559L43.9663 136.377L11.3674 136.094C10.9916 134.391 11.0855 132.406 12.3068 131.271C13.81 129.852 16.4404 130.42 18.883 131.082C19.1648 131.176 19.4467 131.082 19.6345 130.987C19.8224 130.798 20.0103 130.514 20.0103 130.231C20.1043 129.19 20.1043 128.15 20.48 127.299C20.8558 126.448 21.5134 125.881 22.1711 125.786C23.0166 125.692 23.8621 126.259 24.8015 126.826C25.0833 127.016 25.5531 127.016 25.8349 126.826C26.1167 126.637 26.3046 126.164 26.2107 125.786C25.8349 124.084 26.6804 122.098 28.2775 121.247C29.7806 120.396 31.9413 120.774 33.1626 122.004C33.3505 122.193 33.7263 122.382 34.0081 122.287C34.29 122.193 34.5718 122.004 34.6657 121.72C35.1355 120.302 35.6991 118.789 36.8265 117.843C37.7659 117.181 39.1751 116.897 39.9267 117.559Z" fill="#296F3E"/>
<path d="M39.8602 81.1551C37.5706 81.1551 36.5743 78.2598 38.3791 76.8508L93.293 33.9824C94.4334 33.0921 96.0345 33.0958 97.1709 33.9913L151.605 76.8859C153.387 78.2903 152.394 81.1551 150.125 81.1551H39.8602Z" fill="#EF3443"/>
<path d="M95.1653 40.8713L148.244 82.0063V137.42H41.6167V82.0063L95.1653 40.8713Z" fill="white"/>
<path d="M84.6152 72.7013C83.3581 67.3424 86.6548 61.9724 91.9787 60.707C97.3025 59.4416 102.637 62.76 103.895 68.1189C105.152 73.4778 101.855 78.8478 96.5311 80.1132C91.2072 81.3786 85.8723 78.0602 84.6152 72.7013Z" fill="#333846"/>
<path d="M94.3703 82.1927C95.2992 82.1927 95.9184 81.8145 95.9184 81.2471V60.4432C95.9184 59.8758 95.2992 59.4976 94.3703 59.4976C93.4415 59.4976 92.8223 59.8758 92.8223 60.4432V81.3416C92.8223 81.8145 93.5963 82.1927 94.3703 82.1927Z" fill="#EEE7E2"/>
<path d="M108.13 103.185H132.086C132.65 103.185 133.026 103.563 133.026 104.13V137.322C133.026 137.889 132.65 138.268 132.086 138.268H108.036C107.473 138.268 107.097 137.889 107.097 137.322V104.13C107.191 103.658 107.567 103.185 108.13 103.185Z" fill="#F9DFC0"/>
<path d="M113.298 108.295H127.014V120.777H113.298V108.295Z" fill="#333846"/>
<path d="M113.298 121.725H127.014C127.578 121.725 127.954 121.347 127.954 120.78V108.297C127.954 107.73 127.578 107.352 127.014 107.352H113.298C112.734 107.352 112.359 107.73 112.359 108.297V120.78C112.359 121.347 112.734 121.725 113.298 121.725ZM126.075 119.834H114.238V109.243H126.075V119.834Z" fill="#333846"/>
<path d="M120.157 120.78C120.721 120.78 121.097 120.401 121.097 119.834V108.297C121.097 107.73 120.721 107.352 120.157 107.352C119.593 107.352 119.218 107.73 119.218 108.297V119.834C119.218 120.307 119.593 120.78 120.157 120.78Z" fill="#EEE9D4"/>
<path d="M105.036 99.4124H134.759C135.626 99.4124 136.33 100.116 136.33 100.983V102.71C136.33 103.578 135.626 104.281 134.759 104.281H105.036C104.168 104.281 103.465 103.578 103.465 102.71V100.983C103.465 100.116 104.168 99.4124 105.036 99.4124Z" fill="#EF3443"/>
<path d="M113.298 121.725H127.014C127.578 121.725 127.954 121.347 127.954 120.78V108.297C127.954 107.73 127.578 107.352 127.014 107.352H113.298C112.734 107.352 112.359 107.73 112.359 108.297V120.78C112.359 121.347 112.734 121.725 113.298 121.725ZM126.075 119.834H114.238V109.243H126.075V119.834Z" fill="#EEE9D4"/>
<path d="M0.939453 139.571H196.251C196.815 139.571 197.19 138.951 197.19 138.021C197.19 137.091 196.815 136.471 196.251 136.471H0.939453C0.375778 136.471 0 137.091 0 138.021C0 138.796 0.469727 139.571 0.939453 139.571Z" fill="#EEE9D4"/>
<path d="M53.2674 91.8401H90.3756V119.169H53.2674V91.8401Z" fill="#333846"/>
<path d="M53.2691 120.114H90.3774C90.941 120.114 91.3168 119.736 91.3168 119.169V91.8399C91.3168 91.2725 90.941 90.8943 90.3774 90.8943H53.2691C52.7054 90.8943 52.3297 91.2725 52.3297 91.8399V119.169C52.3297 119.641 52.7994 120.114 53.2691 120.114ZM89.4379 118.223H54.2086V92.7855H89.4379V118.223Z" fill="#333846"/>
<path d="M71.8675 120.114C72.4312 120.114 72.807 119.736 72.807 119.169V91.8399C72.807 91.2725 72.4312 90.8943 71.8675 90.8943C71.3039 90.8943 70.9281 91.2725 70.9281 91.8399V119.169C70.9281 119.641 71.3039 120.114 71.8675 120.114Z" fill="#F8B68F"/>
<path d="M53.2691 120.114H90.3774C90.941 120.114 91.3168 119.736 91.3168 119.169V91.8399C91.3168 91.2725 90.941 90.8943 90.3774 90.8943H53.2691C52.7054 90.8943 52.3297 91.2725 52.3297 91.8399V119.169C52.3297 119.641 52.7994 120.114 53.2691 120.114ZM89.4379 118.223H54.2086V92.7855H89.4379V118.223Z" fill="#F8B68F"/>
<path d="M50.261 117.847H93.2878V120.968H50.261V117.847Z" fill="#F8B68F"/>
</svg>
