<svg width="36" height="36" viewBox="0 0 36 36" fill="none" xmlns="http://www.w3.org/2000/svg">
<path d="M17.9874 8.63501C12.05 8.74496 5.69104 10.7058 2.31 14.8015C4.77957 14.8517 7.18932 15.5705 9.28283 16.8815C12.1554 16.0575 15.2219 16.2253 17.9874 17.3579C20.7563 16.226 23.8254 16.0582 26.7012 16.8815C28.7947 15.5705 31.2044 14.8517 33.674 14.8015C30.3021 10.7058 23.9157 8.74496 17.9874 8.63501Z" fill="#004C98"/>
<path fill-rule="evenodd" clip-rule="evenodd" d="M18.3539 11.0178C18.7081 11.0178 18.9953 11.305 18.9953 11.6592V26.8602C18.9953 27.1761 19.1208 27.4791 19.3442 27.7025C19.5676 27.9258 19.8705 28.0513 20.1865 28.0513C20.5024 28.0513 20.8053 27.9258 21.0287 27.7025C21.2521 27.4791 21.3776 27.1761 21.3776 26.8602C21.3776 26.5059 21.6648 26.2188 22.019 26.2188C22.3732 26.2188 22.6604 26.5059 22.6604 26.8602C22.6604 27.5163 22.3997 28.1456 21.9358 28.6095C21.4718 29.0735 20.8426 29.3341 20.1865 29.3341C19.5303 29.3341 18.9011 29.0735 18.4371 28.6095C17.9732 28.1456 17.7125 27.5163 17.7125 26.8602V11.6592C17.7125 11.305 17.9997 11.0178 18.3539 11.0178Z" fill="#004C98"/>
<path d="M17.9874 4.6499C10.3915 4.66823 3.67524 8.90141 2.31 14.7839C3.23335 14.3108 4.2315 14.0008 5.26039 13.8676C7.09294 13.611 10.6664 13.8676 11.6743 14.4357C12.8655 13.3087 15.2386 12.4565 17.9874 12.4565C20.7362 12.4565 23.1369 13.3087 24.3097 14.4357C25.3176 13.9043 28.8911 13.6294 30.7236 13.8676C31.7525 14.0008 32.7506 14.3108 33.674 14.7839C32.3088 8.90141 25.5742 4.66823 17.9874 4.6499Z" fill="#ED7176"/>
<path d="M17.9874 4.6499C10.3915 4.66823 3.67524 8.90141 2.31 14.7839C3.23335 14.3108 4.2315 14.0008 5.26039 13.8676C7.09294 13.611 10.6664 13.8676 11.6743 14.4357C12.8655 13.3087 15.2386 12.4565 17.9874 12.4565C20.7362 12.4565 23.1369 13.3087 24.3097 14.4357C25.3176 13.9043 28.8911 13.6294 30.7236 13.8676C31.7525 14.0008 32.7506 14.3108 33.674 14.7839C32.3088 8.90141 25.5742 4.66823 17.9874 4.6499Z" fill="#3399FF"/>
<path d="M17.9871 4.6499V12.4657C20.7359 12.4657 23.1366 13.3178 24.3094 14.4449C25.3173 13.9134 28.8908 13.6385 30.7233 13.8768C31.7522 14.01 32.7504 14.32 33.6737 14.793C32.3085 8.90141 25.5739 4.66823 17.9871 4.6499Z" fill="#0066CC"/>
<path d="M22.5048 8.6358C21.4077 6.90781 19.8407 5.52837 17.9876 4.65918C16.1381 5.53024 14.5745 6.90946 13.4795 8.6358C12.3978 10.3943 11.7682 12.3932 11.647 14.4541C12.8381 13.3271 15.2113 12.475 17.9601 12.475C20.7089 12.475 23.1095 13.3271 24.2824 14.4541C24.1748 12.3985 23.5644 10.4006 22.5048 8.6358Z" fill="#007FFF"/>
<path d="M22.9076 28.0111C22.9076 31.2319 19.2395 31.9998 14.7065 31.9998C10.1735 31.9998 6.50537 31.2542 6.50537 28.0111C6.50537 24.7679 10.1735 22.1733 14.7065 22.1733C19.2395 22.1733 22.9076 24.7902 22.9076 28.0111Z" fill="#0066CC"/>
<path d="M14.7215 20.8608C16.7103 20.8608 18.3226 19.2485 18.3226 17.2597C18.3226 15.2709 16.7103 13.6587 14.7215 13.6587C12.7327 13.6587 11.1205 15.2709 11.1205 17.2597C11.1205 19.2485 12.7327 20.8608 14.7215 20.8608Z" fill="#FDCA40"/>
<path d="M28.5664 28.8684C28.5664 31.3958 25.6885 31.9997 22.1322 31.9997C18.5759 31.9997 15.6981 31.3958 15.6981 28.8684C15.6981 26.3409 18.5834 24.2832 22.1322 24.2832C25.6811 24.2832 28.5664 26.3335 28.5664 28.8684Z" fill="#007FFF"/>
<path d="M22.1324 23.2536C23.6971 23.2536 24.9655 21.9852 24.9655 20.4205C24.9655 18.8558 23.6971 17.5874 22.1324 17.5874C20.5677 17.5874 19.2993 18.8558 19.2993 20.4205C19.2993 21.9852 20.5677 23.2536 22.1324 23.2536Z" fill="#FDCA40"/>
</svg>
