<svg width="33" height="33" viewBox="0 0 33 33" fill="none" xmlns="http://www.w3.org/2000/svg">
<path d="M32.2 16.5C32.2 25.3866 24.9866 32.6 16.1 32.6C7.2134 32.6 0 25.3866 0 16.5C0 7.61339 7.2134 0.399994 16.1 0.399994C24.9866 0.399994 32.2 7.61339 32.2 16.5Z" fill="#E0E1E3"/>
<path d="M25.9543 7.27782C23.3143 2.25819 18.4434 5.79052 19.2986 9.54595C19.9679 12.4834 23.2028 16.6478 23.2028 16.6478C23.649 16.4991 28.148 14.863 30.3046 12.7436C33.0189 10.0665 30.8252 4.45195 25.9543 7.27782Z" fill="#5C606B"/>
<path d="M6.24435 7.28246C8.88431 2.26282 13.718 5.83234 12.8628 9.55059C12.1935 12.488 8.95867 16.6524 8.95867 16.6524C8.51248 16.5037 4.0134 14.8677 1.85682 12.7483C-0.857503 10.0711 1.33626 4.45659 6.24435 7.28246Z" fill="#5C606B"/>
<path d="M10.2245 19.7357C9.81549 19.587 9.44366 20.0332 9.55521 20.5166C10.2617 23.2681 12.9016 25.3131 16.0993 25.3131C19.297 25.3131 21.937 23.2681 22.6434 20.5166C22.755 20.0332 22.3832 19.6242 21.9742 19.7357C20.1894 20.3306 18.2187 20.6653 16.0993 20.6653C13.9799 20.6281 11.9721 20.2935 10.2245 19.7357Z" fill="#858890"/>
<path d="M16.0999 22.4859C14.687 22.4859 13.4971 23.3411 12.9766 24.5681C13.9061 25.0143 14.9844 25.2746 16.0999 25.2746C17.2525 25.2746 18.2937 25.0143 19.2232 24.5681C18.7027 23.3411 17.4756 22.4859 16.0999 22.4859Z" fill="#5C606B"/>
</svg>
