<svg width="32" height="33" viewBox="0 0 32 33" fill="none" xmlns="http://www.w3.org/2000/svg">
<g clip-path="url(#clip0_1312_162)">
<path d="M15.8421 32.3421C24.5914 32.3421 31.6842 25.2493 31.6842 16.5C31.6842 7.75065 24.5914 0.657898 15.8421 0.657898C7.09275 0.657898 0 7.75065 0 16.5C0 25.2493 7.09275 32.3421 15.8421 32.3421Z" fill="#E0E1E3"/>
<path d="M23 8.20292V25.7973C22.9999 26.1163 22.8664 26.4222 22.6287 26.6478C22.3911 26.8734 22.0688 27 21.7327 27H9.26728C8.93128 27 8.6089 26.8734 8.37127 26.6478C8.13364 26.4222 8.00012 26.1163 8 25.7973V11.5919L12.8372 7H21.7327C22.0688 7 22.3912 7.12674 22.6289 7.35233C22.8665 7.57793 23 7.88386 23 8.20292Z" fill="#F4BD98"/>
<path d="M23 7.26285V25.7371C22.9999 26.0722 22.8664 26.3934 22.6287 26.6302C22.3911 26.8669 22.0687 27 21.7327 27H9.26726C8.93114 27 8.60889 26.8669 8.37126 26.6302C8.13364 26.3934 8.00012 26.0722 8 25.7371V10.8212L12.8374 6H21.7327C22.0687 6 22.3911 6.13304 22.6287 6.36986C22.8664 6.60668 22.9999 6.92789 23 7.26285Z" fill="white"/>
<path d="M23 7.26373V25.7365C23 26.4343 22.4323 27 21.7322 27H9.26613C9.02156 26.9996 8.78236 26.9288 8.57736 26.7961C8.37224 26.6632 8.21003 26.4743 8.11021 26.2519C8.26728 26.3201 8.43965 26.3579 8.62231 26.3579H18.3601C20.5668 26.3579 22.3562 24.5749 22.3562 22.3756V6.62184C22.3568 6.44508 22.3196 6.27022 22.2472 6.10891C22.4713 6.20818 22.6617 6.37012 22.7954 6.5751C22.9289 6.78006 23 7.01926 23 7.26373ZM13.1511 6V9.78881C13.1511 10.1454 13.0089 10.4874 12.7559 10.7396C12.5029 10.9918 12.1597 11.1336 11.802 11.1336H8V10.821L12.8376 6H13.1511Z" fill="#EDEDED"/>
<path d="M13 6V9.69026C13 10.0377 12.862 10.3708 12.6163 10.6165C12.3706 10.8621 12.0376 11 11.6901 11H8L13 6Z" fill="#909299"/>
<path d="M20 13.5071C20 13.6416 19.9493 13.7706 19.8591 13.8657C19.7689 13.9608 19.6465 14.0143 19.5189 14.0143H10.4918C10.3661 14.0114 10.2463 13.9567 10.1585 13.8619C10.0705 13.7671 10.0213 13.6398 10.0213 13.5072C10.0213 13.3746 10.0705 13.2473 10.1585 13.1525C10.2463 13.0576 10.3661 13.003 10.4918 13H19.5189C19.7846 13 20 13.227 20 13.5071ZM20 15.9999C20 16.1344 19.9492 16.2634 19.859 16.3585C19.7688 16.4535 19.6464 16.5069 19.5189 16.5069H10.4918C10.3661 16.5041 10.2463 16.4493 10.1585 16.3545C10.0705 16.2598 10.0213 16.1324 10.0213 15.9998C10.0213 15.8672 10.0705 15.7398 10.1585 15.6451C10.2463 15.5504 10.3661 15.4956 10.4918 15.4927H19.5189C19.7846 15.4927 20 15.7198 20 15.9999ZM16.2428 18.4925C16.2428 18.6271 16.1921 18.7561 16.1019 18.8512C16.0117 18.9463 15.8892 18.9999 15.7617 18.9999H10.4918C10.4277 19.0014 10.364 18.9893 10.3045 18.9645C10.2448 18.9396 10.1905 18.9025 10.1448 18.8553C10.099 18.808 10.0625 18.7516 10.0377 18.6894C10.0129 18.6271 10 18.5603 10 18.4926C10 18.4252 10.0129 18.3583 10.0377 18.2961C10.0625 18.2337 10.099 18.1773 10.1448 18.1301C10.1905 18.0829 10.2448 18.0457 10.3045 18.0209C10.364 17.9961 10.4277 17.984 10.4918 17.9855H15.7617C16.0274 17.9855 16.2428 18.2125 16.2428 18.4925Z" fill="#E1DFDF"/>
<path d="M12.2391 22.3555C12.2413 22.3343 12.2516 22.3148 12.2676 22.3013C12.282 22.2896 12.2997 22.2833 12.3179 22.2832H12.5375C12.5573 22.2832 12.5749 22.2902 12.5906 22.304C12.6056 22.3179 12.6125 22.3359 12.6109 22.3584C12.6047 22.4369 12.5859 22.5137 12.5553 22.5859C12.5218 22.6644 12.4722 22.7346 12.41 22.7918C12.3451 22.8526 12.2629 22.9028 12.1632 22.9417C12.0637 22.9806 11.9435 23 11.8025 23C11.678 23 11.5674 22.9808 11.4718 22.9429C11.3758 22.9049 11.2944 22.8521 11.2277 22.7845C11.161 22.7169 11.1086 22.636 11.0718 22.5416C11.0338 22.4431 11.0113 22.3391 11.0051 22.2335C11.0017 22.1628 11 22.0854 11 21.9999C11 21.915 11.0017 21.8372 11.0051 21.7666C11.0123 21.6555 11.0345 21.553 11.0716 21.4583C11.1086 21.3637 11.1608 21.2831 11.2275 21.2153C11.2942 21.1475 11.3758 21.095 11.4716 21.057C11.5674 21.0191 11.678 21 11.8025 21C11.9435 21 12.0639 21.0195 12.1632 21.0584C12.2627 21.0972 12.3451 21.1475 12.41 21.2083C12.4751 21.2695 12.5234 21.3384 12.5553 21.4153C12.5869 21.4921 12.6052 21.5678 12.6109 21.6416C12.612 21.6517 12.6108 21.6618 12.6072 21.6713C12.6037 21.6808 12.598 21.6892 12.5906 21.6958C12.5761 21.7093 12.5571 21.7168 12.5375 21.7166H12.3179C12.2993 21.7165 12.2812 21.7101 12.2662 21.6986C12.2579 21.6921 12.2509 21.6841 12.2457 21.6748C12.2406 21.6656 12.2374 21.6553 12.2364 21.6446C12.2306 21.6064 12.2176 21.5695 12.1985 21.5361C12.1774 21.4997 12.1498 21.4677 12.117 21.4419C12.078 21.4115 12.034 21.3885 11.9872 21.3738C11.9273 21.3551 11.865 21.3461 11.8025 21.3472C11.732 21.3472 11.6704 21.3583 11.618 21.3805C11.5688 21.4007 11.524 21.431 11.4866 21.4694C11.4515 21.5065 11.4244 21.5512 11.4051 21.6028C11.3864 21.6546 11.3749 21.7092 11.3713 21.7666C11.3679 21.8372 11.3661 21.9147 11.3661 21.9999C11.3661 22.0852 11.3679 22.1628 11.3713 22.2332C11.3743 22.2897 11.3857 22.3455 11.4051 22.3985C11.4244 22.4494 11.4515 22.4934 11.4866 22.5305C11.5217 22.5674 11.5656 22.597 11.618 22.6193C11.6704 22.6415 11.732 22.6528 11.8025 22.6528C11.8729 22.6528 11.9345 22.6438 11.9872 22.6263C12.0394 22.6088 12.0833 22.5859 12.1182 22.5582C12.1537 22.5305 12.1814 22.4989 12.2011 22.464C12.2208 22.4291 12.2339 22.3924 12.2391 22.3555ZM14.189 22.6249C14.2089 22.6249 14.226 22.6325 14.2407 22.6473C14.255 22.6621 14.2622 22.6797 14.2622 22.7001V22.8971C14.2623 22.9069 14.2605 22.9166 14.2567 22.9257C14.2531 22.9347 14.2476 22.9429 14.2407 22.9498C14.2341 22.957 14.226 22.9626 14.2171 22.9664C14.2082 22.9703 14.1986 22.9722 14.189 22.972H13.0012C12.9916 22.9722 12.9821 22.9703 12.9733 22.9664C12.9644 22.9626 12.9565 22.957 12.9499 22.9498C12.9428 22.943 12.9373 22.9348 12.9336 22.9257C12.9298 22.9167 12.9278 22.9069 12.928 22.8971V21.1028C12.928 21.0825 12.9351 21.065 12.9499 21.0501C12.9565 21.0429 12.9644 21.0373 12.9733 21.0335C12.9821 21.0297 12.9916 21.0277 13.0012 21.0278H13.221C13.2409 21.0278 13.2579 21.0352 13.2723 21.0501C13.2793 21.0568 13.2849 21.065 13.2885 21.0742C13.2923 21.0832 13.2941 21.093 13.294 21.1028V22.6249H14.189ZM15.4148 21.0278C15.4438 21.0278 15.4652 21.0359 15.4799 21.0517C15.4946 21.0674 15.507 21.091 15.5179 21.1222L16.1823 22.8776C16.1858 22.8903 16.1859 22.9037 16.1826 22.9164C16.1792 22.9291 16.1726 22.9407 16.1633 22.9498C16.1567 22.957 16.1487 22.9626 16.1398 22.9664C16.1309 22.9702 16.1214 22.9722 16.1118 22.972H15.9165C15.8804 22.972 15.8551 22.9642 15.8406 22.9484C15.8279 22.9353 15.8177 22.9199 15.8107 22.9028L15.6941 22.5946H14.8372L14.7206 22.9028C14.7137 22.92 14.7035 22.9354 14.6908 22.9484C14.6762 22.9642 14.6509 22.972 14.6148 22.972H14.4197C14.4101 22.9722 14.4005 22.9703 14.3916 22.9664C14.3827 22.9627 14.3746 22.957 14.368 22.9498C14.3586 22.9407 14.3519 22.9292 14.3486 22.9165C14.3453 22.9037 14.3454 22.8903 14.349 22.8776L15.0134 21.1222C15.0213 21.0963 15.0342 21.0723 15.0514 21.0517C15.0658 21.0359 15.0875 21.0278 15.1168 21.0278H15.4148ZM15.5639 22.2474L15.2656 21.4557L14.9674 22.2474H15.5639ZM16.5051 22.972C16.4955 22.9722 16.486 22.9703 16.4771 22.9664C16.4683 22.9626 16.4603 22.957 16.4537 22.9498C16.4467 22.943 16.4412 22.9348 16.4373 22.9257C16.4336 22.9167 16.4317 22.9069 16.4318 22.8971V21.1028C16.4318 21.0825 16.439 21.065 16.4537 21.0501C16.4603 21.0429 16.4683 21.0373 16.4771 21.0335C16.486 21.0297 16.4955 21.0277 16.5051 21.0278H16.7249C16.7448 21.0278 16.7617 21.0352 16.7762 21.0501C16.7832 21.0568 16.7887 21.065 16.7924 21.0742C16.7962 21.0832 16.798 21.093 16.7979 21.1028V22.8971C16.798 22.9069 16.7962 22.9167 16.7924 22.9257C16.7887 22.9348 16.7832 22.943 16.7762 22.9498C16.7696 22.957 16.7616 22.9626 16.7528 22.9663C16.744 22.9702 16.7345 22.9722 16.7249 22.972H16.5051ZM18.1107 22.0194L18.626 21.1028C18.633 21.0936 18.6455 21.079 18.6626 21.0584C18.6796 21.038 18.7062 21.0278 18.7424 21.0278H18.927C18.9469 21.0278 18.9639 21.0352 18.9783 21.0501C18.9852 21.0568 18.9908 21.065 18.9945 21.0742C18.9983 21.0832 19.0001 21.093 19 21.1028V22.8971C19.0002 22.9069 18.9983 22.9167 18.9946 22.9257C18.9908 22.9348 18.9854 22.943 18.9783 22.9498C18.9718 22.957 18.9638 22.9626 18.955 22.9663C18.9461 22.9702 18.9366 22.9722 18.927 22.972H18.7071C18.6975 22.9722 18.6881 22.9703 18.6793 22.9664C18.6704 22.9626 18.6625 22.957 18.6559 22.9498C18.6489 22.943 18.6433 22.9348 18.6396 22.9257C18.6359 22.9167 18.634 22.9069 18.6341 22.8971V21.8111L18.2816 22.436C18.2725 22.4508 18.2599 22.466 18.2434 22.4818C18.2265 22.4978 18.204 22.5064 18.1811 22.5054H18.04C18.017 22.5063 17.9947 22.4978 17.9779 22.4818C17.9634 22.4682 17.9506 22.4528 17.9398 22.436L17.5874 21.8111V22.8971C17.5874 22.9069 17.5855 22.9167 17.5818 22.9257C17.578 22.9348 17.5724 22.943 17.5654 22.9498C17.5588 22.957 17.5508 22.9626 17.542 22.9663C17.5332 22.9702 17.5236 22.9722 17.5142 22.972H17.2942C17.2846 22.9722 17.2751 22.9703 17.2663 22.9664C17.2575 22.9626 17.2495 22.957 17.2429 22.9498C17.2359 22.943 17.2303 22.9348 17.2266 22.9257C17.2228 22.9167 17.2209 22.9069 17.221 22.8971V21.1028C17.221 21.0825 17.2282 21.065 17.2429 21.0501C17.2495 21.0429 17.2575 21.0373 17.2663 21.0335C17.2751 21.0297 17.2846 21.0277 17.2942 21.0278H17.4789C17.515 21.0278 17.5415 21.038 17.5586 21.0584L17.5952 21.1028L18.1107 22.0194Z" fill="#999CA2"/>
<path d="M20.2273 7.65637V8.257H21V8.82263H20.2045C20.144 9.24163 19.952 9.55813 19.6288 9.77238C19.3107 9.9865 18.8232 10.0935 18.1667 10.0935V10.5335C18.1667 11.0178 18.3839 11.2597 18.8181 11.2597C19.0303 11.2597 19.1869 11.1992 19.2879 11.0782C19.394 10.9571 19.4469 10.7756 19.4469 10.5335H20.4395C20.4192 10.9944 20.2753 11.3553 20.0076 11.6159C19.7399 11.872 19.3585 12 18.8636 12C18.3132 12 17.8915 11.8672 17.5985 11.602C17.3107 11.3319 17.1667 10.9293 17.1667 10.3939V9.45113C17.7172 9.45113 18.1288 9.43712 18.4015 9.40925C18.6743 9.37662 18.8687 9.31612 18.9849 9.22762C19.1061 9.13925 19.1819 9.00425 19.2121 8.82263H17V8.257H19.2273V7.65637H17V7H21V7.65637H20.2273Z" fill="#999CA2"/>
</g>
<defs>
<clipPath id="clip0_1312_162">
<rect width="32" height="33" fill="white"/>
</clipPath>
</defs>
</svg>
