<svg width="24" height="24" viewBox="0 0 24 24" fill="none" xmlns="http://www.w3.org/2000/svg">
<path d="M12.8 15.163L14.3509 13.7325C14.6451 13.4611 15.0985 13.4616 15.3921 13.7335C15.72 14.0371 15.72 14.5555 15.3921 14.8591L12 18L8.60786 14.8591C8.27998 14.5555 8.27998 14.0371 8.60786 13.7335C8.90152 13.4616 9.35488 13.4611 9.64906 13.7325L11.2 15.163V8.8C11.2 8.35817 11.5582 8 12 8C12.4418 8 12.8 8.35817 12.8 8.8V15.163Z" fill="#007FFF"/>
<path fill-rule="evenodd" clip-rule="evenodd" d="M7 5C6.44772 5 6 5.44772 6 6V19C6 19.5523 6.44771 20 7 20H17.45C18.0023 20 18.45 19.5523 18.45 19V9.16579L13.9577 5H7ZM4 6C4 4.34315 5.34315 3 7 3H14.7423L20.45 8.29285V19C20.45 20.6569 19.1069 22 17.45 22H7C5.34314 22 4 20.6569 4 19V6Z" fill="#5C606B"/>
</svg>
