<svg width="24" height="24" viewBox="0 0 24 24" fill="none" xmlns="http://www.w3.org/2000/svg">
<path d="M11.9999 8C11.7347 8 11.4804 8.10536 11.2928 8.29289C11.1053 8.48043 10.9999 8.73478 10.9999 9V12C10.9999 12.2652 11.1053 12.5196 11.2928 12.7071C11.4804 12.8946 11.7347 13 11.9999 13H13.9999C14.2652 13 14.5195 12.8946 14.707 12.7071C14.8946 12.5196 14.9999 12.2652 14.9999 12C14.9999 11.7348 14.8946 11.4804 14.707 11.2929C14.5195 11.1054 14.2652 11 13.9999 11H12.9999V9C12.9999 8.73478 12.8946 8.48043 12.707 8.29289C12.5195 8.10536 12.2652 8 11.9999 8Z" fill="#007FFF"/>
<path d="M12.0002 2C9.43654 2.00731 6.97364 2.99891 5.12015 4.77V3C5.12015 2.73478 5.0148 2.48043 4.82726 2.29289C4.63972 2.10536 4.38537 2 4.12015 2C3.85494 2 3.60058 2.10536 3.41305 2.29289C3.22551 2.48043 3.12015 2.73478 3.12015 3V7.5C3.12015 7.76522 3.22551 8.01957 3.41305 8.20711C3.60058 8.39464 3.85494 8.5 4.12015 8.5H8.62015C8.88537 8.5 9.13972 8.39464 9.32726 8.20711C9.51479 8.01957 9.62015 7.76522 9.62015 7.5C9.62015 7.23478 9.51479 6.98043 9.32726 6.79289C9.13972 6.60536 8.88537 6.5 8.62015 6.5H6.22015C7.50593 5.15636 9.21966 4.30265 11.0667 4.08567C12.9137 3.86868 14.7786 4.30197 16.3408 5.31104C17.903 6.32011 19.0648 7.84191 19.6265 9.61479C20.1882 11.3877 20.1147 13.3008 19.4186 15.0254C18.7225 16.7499 17.4473 18.1781 15.8123 19.0643C14.1773 19.9505 12.2846 20.2394 10.4597 19.8813C8.63478 19.5232 6.99162 18.5405 5.81274 17.1022C4.63387 15.6638 3.99294 13.8597 4.00015 12C4.00015 11.7348 3.8948 11.4804 3.70726 11.2929C3.51972 11.1054 3.26537 11 3.00015 11C2.73494 11 2.48058 11.1054 2.29305 11.2929C2.10551 11.4804 2.00015 11.7348 2.00015 12C2.00015 13.9778 2.58664 15.9112 3.68546 17.5557C4.78427 19.2002 6.34606 20.4819 8.17332 21.2388C10.0006 21.9957 12.0112 22.1937 13.9511 21.8079C15.8909 21.422 17.6727 20.4696 19.0712 19.0711C20.4697 17.6725 21.4222 15.8907 21.808 13.9509C22.1939 12.0111 21.9958 10.0004 21.2389 8.17316C20.4821 6.3459 19.2003 4.78412 17.5559 3.6853C15.9114 2.58649 13.978 2 12.0002 2Z" fill="#5C606B"/>
</svg>
